<svg xmlns="http://www.w3.org/2000/svg" width="31" height="31" viewBox="0 0 31 31" fill="none">
    <path d="M16.9645 4.25H11.75C9.39298 4.25 8.21447 4.25 7.48223 4.98223C6.75 5.71447 6.75 6.89298 6.75 9.25V21.75C6.75 24.107 6.75 25.2855 7.48223 26.0178C8.21447 26.75 9.39298 26.75 11.75 26.75H19.25C21.607 26.75 22.7855 26.75 23.5178 26.0178C24.25 25.2855 24.25 24.107 24.25 21.75V11.5355C24.25 11.0246 24.25 10.7691 24.1549 10.5394C24.0597 10.3097 23.8791 10.1291 23.5178 9.76777L18.7322 4.98223C18.3709 4.62095 18.1903 4.4403 17.9606 4.34515C17.7309 4.25 17.4754 4.25 16.9645 4.25Z" stroke="white" stroke-width="2"/>
    <path d="M11.75 16.75L19.25 16.75" stroke="white" stroke-width="2" stroke-linecap="round"/>
    <path d="M11.75 21.75L16.75 21.75" stroke="white" stroke-width="2" stroke-linecap="round"/>
    <path d="M16.75 4.25V9.25C16.75 10.4285 16.75 11.0178 17.1161 11.3839C17.4822 11.75 18.0715 11.75 19.25 11.75H24.25" stroke="white" stroke-width="2"/>
</svg>