<svg xmlns="http://www.w3.org/2000/svg" width="160" height="173" viewBox="0 0 160 173" fill="none">
    <path d="M150.88 69.3137C150.88 69.3137 125.015 84.0997 141.873 130.486C156.845 171.681 103.182 177.278 82.3173 168.599C55.2903 157.355 46.3792 118.481 22.5547 125.367C-1.26984 132.254 -12.1845 76.8209 22.96 64.4044C66.6784 48.9589 44.4489 30.2743 51.4417 13.8417C56.4608 2.04791 96.0695 -9.69539 110.913 15.9338C123.404 37.5008 132.686 32.5868 140.593 31.6595C151.996 30.3215 171.596 53.3659 150.88 69.3137Z" fill="#FFE2DE"/>
    <path d="M84.2279 66.1424C84.2279 66.1424 43.3928 112.011 42.9209 117.097C42.9209 117.097 44.7654 117.915 46.8227 120.299C49.2041 123.059 52.058 124.113 53.487 123.336C55.546 122.216 55.3692 120.675 55.3692 120.675L86.8846 132.091C86.8846 132.091 98.0146 128.601 120.586 105.073L126.59 96.4948L84.2279 66.1424Z" fill="#E5680E"/>
    <path d="M37.4327 72.7682C37.4327 72.7682 42.4587 76.3736 48.4652 72.9749L67.3565 62.1318C67.3565 62.1318 73.7886 57.3848 80.4033 61.9511C80.4033 61.9511 74.3935 76.5492 86.7749 79.0473C86.7749 79.0473 98.8586 84.5852 105.252 90.2703C108.467 93.1305 115.343 97.9814 118.612 100.721C119.489 101.455 121.284 102.552 122.195 103.653C123.459 105.181 125.876 108.513 121.998 111.745C121.998 111.745 119.414 114.781 114.236 111.586C109.424 108.616 101.034 101.728 95.9489 98.5238C95.673 98.3501 94.4129 98.0933 96.1707 99.8081C98.3391 101.922 108.466 109.408 108.466 109.408C108.466 109.408 112.254 112.038 113.154 113.373C113.944 114.544 115.161 117.116 112.896 119.908C112.896 119.908 109.679 124.149 104.163 120.779L91.5005 111.94C91.5005 111.94 88.8076 110.201 90.9728 112.738C90.9728 112.738 103.824 121.768 104.33 123.142C105.77 127.058 102.982 132.096 96.7199 129.664L82.2111 121.731C82.2111 121.731 80.8851 121.537 81.9705 122.595C81.9705 122.595 95.4322 129.542 96.3648 130.305C97.5845 131.304 94.6227 136.008 88.4861 134.124C79.7331 131.437 62.0415 126.6 53.4865 123.335C50.4766 122.187 44.2935 119.119 41.9105 117.677C41.9105 117.677 32.3513 111.661 19.2612 111.411L28.692 71.2136L37.4327 72.7682Z" fill="#FFA569"/>
    <path d="M52.0548 126.045C52.0548 126.045 54.8191 122.393 56.5278 121.073C59.9944 118.394 66.2491 120.99 66.553 124.272C66.553 124.272 67.9014 127.498 62.3096 132.255C61.2758 133.134 57.9909 135.223 53.1877 131.276C53.1876 131.276 50.3219 128.64 52.0548 126.045Z" fill="#E5680E"/>
    <path d="M57.5942 93.5869C57.5942 93.5869 65.6038 99.9302 73.8951 81.0595C73.8951 81.0595 78.3068 82.5967 85.1606 78.6219L86.5886 76.4012C86.5886 76.4012 72.6685 77.8827 72.7299 78.1565C72.7913 78.4302 57.5942 93.5869 57.5942 93.5869Z" fill="#E5680E"/>
    <path d="M63.9655 133.186C63.867 130.765 67.2618 126.322 68.7477 124.753C70.4985 122.905 77.3927 121.139 78.1936 128.478C78.1936 128.478 77.7663 133.622 73.9366 136.554C72.116 137.949 64.1739 138.32 63.9655 133.186Z" fill="#E5680E"/>
    <path d="M79.4188 129.523C80.5919 127.657 86.408 126.767 86.5378 132.126C86.5869 134.155 85.5298 137.5 82.5163 138.826C80.3256 139.79 74.5432 138.221 75.6425 135.871C76.3973 134.256 76.7665 133.74 79.4188 129.523Z" fill="#E5680E"/>
    <path d="M41.7785 121.26C42.2838 120.149 43.1189 119.084 44.7864 117.74C45.7954 116.928 48.6304 116.613 50.3352 117.677C51.5589 118.442 53.9712 120.234 53.4305 121.828C52.4021 124.856 50.6585 128.96 46.8837 127.774C46.8835 127.774 39.5254 126.212 41.7785 121.26Z" fill="#E5680E"/>
    <path d="M35.9253 68.8128L28.2209 118.898L3.48193 114.136L14.4459 63.1151L35.9253 68.8128Z" fill="#E5680E"/>
    <path d="M44.5025 119.572C44.5025 119.572 43.293 123.004 45.4405 124.446C45.4405 124.446 48.2041 127.762 51.6251 122.284C52.1951 121.371 50.9205 119.76 48.6627 119.157C48.6628 119.157 46.5237 118.334 44.5025 119.572Z" fill="#FFDBD4"/>
    <path d="M55.4505 125.743C55.4505 125.743 56.8586 122.592 58.0545 122.108C59.2862 121.609 62.9864 121.528 64.5411 125.163C64.8085 125.788 63.8427 127.093 63.408 127.785C62.6068 129.063 60.538 130.975 58.1328 129.662C58.1326 129.661 55.0558 128.55 55.4505 125.743Z" fill="#FFDBD4"/>
    <path d="M68.0407 128.441C68.3748 127.525 69.6715 125.857 70.8517 125.739C72.7929 125.546 77.2759 126.985 76.0912 129.856C76.0912 129.856 75.074 132.289 72.8915 132.857C72.8915 132.857 69.1064 134.214 67.7062 130.692C67.4956 130.163 67.847 128.975 68.0407 128.441Z" fill="#FFDBD4"/>
    <path d="M78.319 133.945C78.878 135.339 81.2751 136.78 82.7382 135.452C83.3313 134.913 84.5532 133.114 84.62 132.317C84.7319 130.968 82.0778 128.12 79.7527 130.772C79.204 131.398 78.0094 133.172 78.319 133.945Z" fill="#FFDBD4"/>
    <path d="M89.7 60.6512C89.7 60.6512 81.605 58.0982 75.413 64.315L65.0344 70.6697C65.0344 70.6697 60.6078 72.1374 59.2384 78.06L54.5239 87.8625C54.5239 87.8625 50.715 94.5886 61.8228 93.6674C61.8228 93.6674 68.1802 90.9806 73.2278 80.772L73.1923 79.4688C73.1923 79.4688 73.9116 81.0764 77.5803 80.4309C77.5803 80.4309 81.3692 79.1195 86.6096 77.384C86.6096 77.384 87.4601 78.4191 92.4942 81.1836C92.4942 81.1836 104.802 87.6234 107.663 91.0566L122.408 102.279C122.408 102.279 124.697 101.365 130.392 92.5073L143.1 87.9901L129.768 51.6167C129.768 51.6167 109.47 59.5661 103.509 60.1604L89.7 60.6512Z" fill="#F25820"/>
    <path d="M120.897 52.5014L138.459 93.8425L157.147 86.5895L138.789 44.7447L120.897 52.5014Z" fill="#FFA569"/>
    <path d="M56.8654 82.9932C56.8654 82.9932 61.3267 81.3046 62.6421 84.393C62.6421 84.393 61.2868 89.8992 59.7619 91.1198C58.583 92.0648 54.6694 92.4514 53.8997 90.4367C53.8997 90.4367 53.4156 88.3611 56.8654 82.9932Z" fill="#FFDBD4"/>
    <path d="M97.0903 83.7165C97.0903 83.7165 105.389 87.1257 113.772 80.41C113.772 80.41 108.014 88.1706 100.262 85.5902L97.0903 83.7165Z" fill="#E5680E"/>
    <path d="M19.8427 109.25C19.8969 109.793 19.789 110.339 19.5326 110.82C19.2762 111.302 18.8828 111.696 18.4023 111.954C17.9217 112.211 17.3756 112.321 16.8328 112.268C16.2901 112.215 15.7752 112.003 15.3533 111.657C14.9314 111.312 14.6214 110.849 14.4624 110.328C14.3035 109.806 14.3029 109.249 14.4605 108.727C14.6182 108.205 14.9271 107.742 15.3483 107.395C15.7694 107.049 16.2837 106.835 16.8263 106.781C17.5537 106.709 18.2801 106.928 18.8457 107.391C19.4114 107.854 19.77 108.523 19.8427 109.25Z" fill="white"/>
    <path d="M148.099 82.5642C148.153 83.1066 148.045 83.6529 147.789 84.134C147.532 84.615 147.139 85.0093 146.659 85.2668C146.178 85.5243 145.632 85.6336 145.09 85.5808C144.547 85.528 144.032 85.3155 143.61 84.9702C143.189 84.6249 142.879 84.1622 142.72 83.6407C142.561 83.1193 142.56 82.5624 142.718 82.0405C142.875 81.5187 143.184 81.0553 143.605 80.7089C144.026 80.3625 144.54 80.1488 145.083 80.0947C145.443 80.0587 145.807 80.0941 146.153 80.1988C146.5 80.3034 146.822 80.4753 147.103 80.7046C147.383 80.9339 147.615 81.2162 147.786 81.5353C147.957 81.8543 148.063 82.2039 148.099 82.5642Z" fill="white"/>
</svg>