<svg xmlns="http://www.w3.org/2000/svg" width="110" height="110" viewBox="0 0 110 110" fill="none">
    <path d="M101.445 40.6658H8.55566V75.6103H101.445V40.6658Z" fill="#F8DA7F"/>
    <path d="M65.5028 40.8319C65.1899 40.8319 64.877 40.7122 64.6387 40.4738L58.3613 34.1965C57.8835 33.7186 57.8835 32.9462 58.3613 32.4683L64.6387 26.1909C65.1166 25.713 65.889 25.713 66.3669 26.1909C66.8448 26.6688 66.8448 27.4413 66.3669 27.9192L60.9537 33.3324L66.3669 38.7456C66.8448 39.2235 66.8448 39.9959 66.3669 40.4738C66.1273 40.7134 65.8157 40.8319 65.5028 40.8319Z" fill="white"/>
    <path d="M108.778 84.1658H1.22222C0.547556 84.1658 0 83.6194 0 82.9436V33.3323C0 32.6577 0.547556 32.1101 1.22222 32.1101H48.2766C48.9512 32.1101 49.4988 32.6577 49.4988 33.3323C49.4988 34.007 48.9512 34.5546 48.2766 34.5546H2.44444V81.7213H107.556V34.5546H59.2252C58.5493 34.5546 58.003 34.007 58.003 33.3323C58.003 32.6577 58.5493 32.1101 59.2252 32.1101H108.778C109.454 32.1101 110 32.6577 110 33.3323V82.9436C110 83.6194 109.454 84.1658 108.778 84.1658Z" fill="white"/>
    <path d="M54.9999 72.1941C47.2498 72.1941 40.9443 65.8887 40.9443 58.1386C40.9443 50.3885 47.2498 44.083 54.9999 44.083C62.75 44.083 69.0554 50.3885 69.0554 58.1386C69.0554 65.8887 62.75 72.1941 54.9999 72.1941ZM54.9999 46.5275C48.5979 46.5275 43.3888 51.7366 43.3888 58.1386C43.3888 64.5406 48.5979 69.7497 54.9999 69.7497C61.4019 69.7497 66.611 64.5406 66.611 58.1386C66.611 51.7366 61.4019 46.5275 54.9999 46.5275Z" fill="white"/>
    <path d="M38.6086 72.1943H20.5295C19.8549 72.1943 19.3073 71.6479 19.3073 70.9721C19.3085 67.5254 16.5353 64.7522 13.1265 64.7522C12.4519 64.7522 11.9043 64.2058 11.9043 63.5299V52.7463C11.9043 52.0716 12.4519 51.524 13.1265 51.524C16.5182 51.524 19.2902 48.7643 19.3073 45.3726C19.311 44.7004 19.8573 44.1565 20.5295 44.1565H38.6086C39.2833 44.1565 39.8309 44.704 39.8309 45.3787C39.8309 46.0534 39.2833 46.6009 38.6086 46.6009H21.6601C21.1052 50.3605 18.1095 53.3439 14.3487 53.8817V62.3933C18.1425 62.9335 21.1492 65.9512 21.6723 69.7498H38.6086C39.2833 69.7498 39.8309 70.2962 39.8309 70.9721C39.8309 71.6479 39.2845 72.1943 38.6086 72.1943Z" fill="white"/>
    <path d="M89.4691 72.1943H71.3912C70.7153 72.1943 70.1689 71.6479 70.1689 70.972C70.1689 70.2962 70.7153 69.7498 71.3912 69.7498H88.3324C88.8702 65.9683 91.8707 62.9702 95.6498 62.4312V53.9196C91.8695 53.3818 88.8702 50.3825 88.3324 46.6022H71.3912C70.7153 46.6022 70.1689 46.0546 70.1689 45.3799C70.1689 44.7053 70.7153 44.1577 71.3912 44.1577H89.4691C90.145 44.1577 90.6913 44.7053 90.6913 45.3799C90.6913 48.7887 93.4645 51.5619 96.8733 51.5619C97.5492 51.5619 98.0955 52.1095 98.0955 52.7842V63.5678C98.0955 64.2437 97.5492 64.79 96.8733 64.79C93.4645 64.79 90.6913 67.5645 90.6913 70.9733C90.6913 71.6479 90.145 72.1943 89.4691 72.1943Z" fill="white"/>
</svg>