<svg xmlns="http://www.w3.org/2000/svg" width="200" height="201" viewBox="0 0 200 201" fill="none">
    <path d="M135.485 8.61164C135.485 8.61164 108.09 49.2097 64.2587 24.9933C20.4271 0.776808 -23.4047 66.3038 14.3393 106.19C52.0832 146.075 15.148 167.993 40.7897 192.437C69.9332 220.22 95.3061 163.882 118.439 176.702C169.496 204.998 207.32 193.796 198.797 161.033C183.837 103.521 164.706 99.7795 179.317 69.865C193.927 39.9505 161.682 -22.249 135.485 8.61164Z" fill="#FFE5DE"/>
    <path d="M120.571 120.895L118.406 134.49L108.098 199.113L89.5288 195.056L101.435 120.405L102.001 116.848L120.571 120.895Z" fill="#FF9669"/>
    <path d="M166.302 88.3852L159.899 128.547C159.88 128.665 159.842 128.777 159.786 128.878C159.73 128.978 159.658 129.065 159.573 129.132C159.489 129.2 159.394 129.248 159.294 129.272C159.194 129.297 159.09 129.298 158.99 129.276L69.0332 109.647L79.6211 43.2291L147.931 58.1352C160.312 60.8363 168.535 74.3769 166.302 88.3852Z" fill="#FFAAA2"/>
    <path d="M98.8347 74.907L92.4818 114.758L45.2632 104.454L51.6159 64.6033C53.9549 49.9309 66.4217 40.3428 79.4605 43.188C92.4993 46.0332 101.174 60.2343 98.8347 74.907Z" fill="#FF9669"/>
    <path d="M120.817 93.5358C117.338 92.7765 115.042 88.8199 115.697 84.711C116.352 80.6022 119.713 77.879 123.192 78.6388C124.301 78.8825 125.336 79.4657 126.19 80.3289C127.044 81.1921 127.687 82.3045 128.055 83.553L172.008 93.1443L170.821 100.593L126.867 91.0018C126.14 92.0116 125.197 92.7781 124.134 93.2232C123.072 93.6683 121.927 93.7762 120.817 93.5358Z" fill="#F97E41"/>
    <path d="M97.2679 75.6393L91.0783 114.466L46.5967 104.759L52.7867 65.9327C55.0655 51.6376 66.8708 42.2213 79.154 44.9017C91.4371 47.5821 99.5467 61.344 97.2679 75.6393Z" fill="#F97E41"/>
    <path d="M122.063 89.773C123.852 89.773 125.302 88.0767 125.302 85.9843C125.302 83.8919 123.852 82.1957 122.063 82.1957C120.275 82.1957 118.825 83.8919 118.825 85.9843C118.825 88.0767 120.275 89.773 122.063 89.773Z" fill="white"/>
    <path d="M172.516 93.1179L168.633 117.473C168.616 117.578 168.565 117.671 168.49 117.731C168.414 117.792 168.322 117.815 168.232 117.795L158.026 115.568C158.008 115.564 157.993 115.552 157.982 115.535C157.972 115.517 157.968 115.496 157.972 115.475L161.905 90.8024C161.908 90.7817 161.918 90.7634 161.933 90.7515C161.948 90.7396 161.966 90.735 161.984 90.7389L172.462 93.0252C172.479 93.0291 172.495 93.041 172.505 93.0584C172.515 93.0758 172.519 93.0972 172.516 93.1179Z" fill="#FF9669"/>
    <path d="M61.3171 90.8264C61.7469 94.5255 65.2163 98.9221 65.2163 98.9221C59.9297 99.3605 57.0667 95.8627 55.8348 93.7372C54.3117 94.2522 52.7463 94.5772 51.1647 94.7069C40.3116 95.6069 30.9687 87.3169 30.294 76.1813C29.6192 65.0456 37.8694 55.2965 48.7225 54.3966C59.5756 53.4968 68.9179 61.7863 69.5925 72.9221C70.0314 80.1654 66.6907 86.8232 61.3171 90.8264Z" fill="white"/>
    <path d="M92.528 114.782C92.0365 116.237 83.0488 159.596 53.9643 153.25C22.0714 146.933 45.1403 104.441 45.1403 104.441L92.528 114.782Z" fill="#FFAAA2"/>
    <path d="M49.9431 78.3718C51.4334 78.3718 52.6415 76.9583 52.6415 75.2147C52.6415 73.471 51.4334 72.0576 49.9431 72.0576C48.4528 72.0576 47.2446 73.471 47.2446 75.2147C47.2446 76.9583 48.4528 78.3718 49.9431 78.3718Z" fill="#FF9669"/>
    <path d="M37.8627 76.9951C39.362 76.9951 40.5774 75.5731 40.5774 73.8189C40.5774 72.0648 39.362 70.6428 37.8627 70.6428C36.3634 70.6428 35.1479 72.0648 35.1479 73.8189C35.1479 75.5731 36.3634 76.9951 37.8627 76.9951Z" fill="#FF9669"/>
    <path d="M61.9081 79.7173C63.4074 79.7173 64.6228 78.2953 64.6228 76.5411C64.6228 74.787 63.4074 73.365 61.9081 73.365C60.4088 73.365 59.1934 74.787 59.1934 76.5411C59.1934 78.2953 60.4088 79.7173 61.9081 79.7173Z" fill="#FF9669"/>
    <path d="M120.571 120.895L118.406 134.49L101.435 120.405L102.001 116.848L120.571 120.895Z" fill="#F97E41"/>
</svg>