<svg xmlns="http://www.w3.org/2000/svg" width="110" height="110" viewBox="0 0 110 110" fill="none">
    <g clip-path="url(#clip0_130_284)">
        <path d="M75.9062 34.001H28.4326V69.5322H75.9062V34.001Z" fill="#F8DA7F"/>
        <path d="M80.7949 75.6433H54.5293C53.8546 75.6433 53.3071 75.097 53.3071 74.4211C53.3071 73.7452 53.8546 73.1989 54.5293 73.1989H79.5726V30.3356H24.7657V34.6341C24.7657 35.3088 24.2182 35.8563 23.5435 35.8563C22.8688 35.8563 22.3213 35.3088 22.3213 34.6341V29.1133C22.3213 28.4387 22.8688 27.8911 23.5435 27.8911H80.7949C81.4707 27.8911 82.0171 28.4387 82.0171 29.1133V74.4211C82.0171 75.0958 81.4707 75.6433 80.7949 75.6433Z" fill="white"/>
        <path d="M33.8346 75.6433H23.5435C22.8688 75.6433 22.3213 75.0969 22.3213 74.421V68.2647C22.3213 67.5888 22.8688 67.0425 23.5435 67.0425C24.2182 67.0425 24.7657 67.5888 24.7657 68.2647V73.1988H33.8346C34.5093 73.1988 35.0568 73.7451 35.0568 74.421C35.0568 75.0969 34.5093 75.6433 33.8346 75.6433Z" fill="white"/>
        <path d="M108.778 75.6434C108.106 75.6434 107.56 75.102 107.556 74.4298L107.439 57.1512L94.9092 43.9989H82.0172V73.199H88.9655C89.6414 73.199 90.1877 73.7453 90.1877 74.4212C90.1877 75.0971 89.6414 75.6434 88.9655 75.6434H80.795C80.1191 75.6434 79.5728 75.0971 79.5728 74.4212V42.7767C79.5728 42.102 80.1191 41.5544 80.795 41.5544H95.4335C95.7672 41.5544 96.0874 41.6913 96.3184 41.9333L109.543 55.8153C109.758 56.0414 109.878 56.3397 109.88 56.6501L110 74.4127C110.005 75.0886 109.461 75.6386 108.786 75.6434C108.784 75.6434 108.78 75.6434 108.778 75.6434Z" fill="white"/>
        <path d="M98.8681 57.8797H88.522C87.8461 57.8797 87.2998 57.3333 87.2998 56.6574V42.7767C87.2998 42.102 87.8461 41.5544 88.522 41.5544C89.1979 41.5544 89.7442 42.102 89.7442 42.7767V55.4364H98.8681C99.544 55.4364 100.09 55.984 100.09 56.6587C100.09 57.3333 99.5428 57.8797 98.8681 57.8797Z" fill="white"/>
        <path d="M40.303 82.1102C36.0631 82.1102 32.6128 78.6611 32.6128 74.4212C32.6128 70.1813 36.0619 66.7322 40.303 66.7322C44.5429 66.7322 47.992 70.1813 47.992 74.4212C47.992 78.6611 44.5417 82.1102 40.303 82.1102ZM40.303 69.1766C37.4112 69.1766 35.0572 71.5294 35.0572 74.4212C35.0572 77.313 37.41 79.6657 40.303 79.6657C43.196 79.6657 45.5476 77.313 45.5476 74.4212C45.5476 71.5294 43.1948 69.1766 40.303 69.1766Z" fill="white"/>
        <path d="M95.4334 82.1102C91.1923 82.1102 87.7432 78.6611 87.7432 74.4212C87.7432 70.1813 91.1923 66.7322 95.4334 66.7322C99.6733 66.7322 103.122 70.1813 103.122 74.4212C103.122 78.6611 99.6733 82.1102 95.4334 82.1102ZM95.4334 69.1766C92.5416 69.1766 90.1876 71.5294 90.1876 74.4212C90.1876 77.313 92.5416 79.6657 95.4334 79.6657C98.3252 79.6657 100.678 77.313 100.678 74.4212C100.678 71.5294 98.3252 69.1766 95.4334 69.1766Z" fill="white"/>
        <path d="M52.1693 52.9881H1.22222C0.547556 52.9881 0 52.4406 0 51.7659C0 51.0913 0.547556 50.5437 1.22222 50.5437H52.1693C52.844 50.5437 53.3916 51.0913 53.3916 51.7659C53.3916 52.4406 52.844 52.9881 52.1693 52.9881Z" fill="white"/>
        <path d="M52.1691 42.641H14.1568C13.4821 42.641 12.9346 42.0934 12.9346 41.4188C12.9346 40.7441 13.4821 40.1965 14.1568 40.1965H52.1704C52.845 40.1965 53.3926 40.7441 53.3926 41.4188C53.3926 42.0934 52.8438 42.641 52.1691 42.641Z" fill="white"/>
        <path d="M52.1691 63.3356H14.1568C13.4821 63.3356 12.9346 62.7892 12.9346 62.1133C12.9346 61.4374 13.4821 60.8911 14.1568 60.8911H52.1704C52.845 60.8911 53.3926 61.4374 53.3926 62.1133C53.3926 62.7892 52.8438 63.3356 52.1691 63.3356Z" fill="white"/>
    </g>
    <defs>
        <clipPath id="clip0_130_284">
            <rect width="110" height="110" fill="white"/>
        </clipPath>
    </defs>
</svg>