<svg xmlns="http://www.w3.org/2000/svg" width="90" height="90" viewBox="0 0 90 90" fill="none">
    <path d="M21.8018 31.5281L28.2588 59.6721H76.5428L82.9998 31.5281H38.9118H21.8018Z" fill="#F8DA7F"/>
    <path d="M80.543 64.6719H24.259C23.792 64.6719 23.387 64.3489 23.284 63.8939L14.541 25.4939C13.656 21.6049 10.252 18.8899 6.264 18.8899H1C0.448 18.8899 0 18.4419 0 17.8899C0 17.3379 0.448 16.8899 1 16.8899H6.264C11.191 16.8899 15.397 20.2449 16.491 25.0499L25.056 62.6729H79.744L87.746 27.5289H38.912C38.36 27.5289 37.912 27.0809 37.912 26.5289C37.912 25.9769 38.36 25.5289 38.912 25.5289H89C89.305 25.5289 89.592 25.6679 89.781 25.9049C89.971 26.1429 90.043 26.4539 89.974 26.7509L81.517 63.8939C81.414 64.3489 81.01 64.6719 80.543 64.6719Z" fill="white"/>
    <path d="M19.438 78.4661C15.084 78.4661 11.541 74.9241 11.541 70.5701C11.541 66.2161 15.083 62.6731 19.438 62.6731H80.48C81.033 62.6731 81.48 63.1201 81.48 63.6731C81.48 64.2261 81.033 64.6731 80.48 64.6731H19.438C16.187 64.6731 13.541 67.3191 13.541 70.5701C13.541 73.8211 16.187 76.4661 19.438 76.4661C19.99 76.4661 20.438 76.9131 20.438 77.4661C20.438 78.0191 19.99 78.4661 19.438 78.4661Z" fill="white"/>
    <path d="M73.424 84.809C69.376 84.809 66.082 81.515 66.082 77.466C66.082 73.417 69.376 70.123 73.424 70.123C77.473 70.123 80.767 73.417 80.767 77.466C80.767 81.515 77.473 84.809 73.424 84.809ZM73.424 72.123C70.479 72.123 68.082 74.519 68.082 77.466C68.082 80.413 70.478 82.809 73.424 82.809C76.37 82.809 78.767 80.413 78.767 77.466C78.767 74.519 76.37 72.123 73.424 72.123Z" fill="white"/>
    <path d="M33.9592 84.809C29.9112 84.809 26.6172 81.515 26.6172 77.466C26.6172 73.417 29.9112 70.123 33.9592 70.123C38.0082 70.123 41.3022 73.417 41.3022 77.466C41.3022 81.515 38.0082 84.809 33.9592 84.809ZM33.9592 72.123C31.0132 72.123 28.6172 74.519 28.6172 77.466C28.6172 80.413 31.0132 82.809 33.9592 82.809C36.9052 82.809 39.3022 80.413 39.3022 77.466C39.3022 74.519 36.9052 72.123 33.9592 72.123Z" fill="white"/>
    <path d="M58.0848 78.4661H40.3018C39.7498 78.4661 39.3018 78.0191 39.3018 77.4661C39.3018 76.9131 39.7498 76.4661 40.3018 76.4661H58.0848C58.6378 76.4661 59.0848 76.9131 59.0848 77.4661C59.0848 78.0191 58.6378 78.4661 58.0848 78.4661Z" fill="white"/>
    <path d="M80.4788 27.5279H54.0288C53.4758 27.5279 53.0288 27.0799 53.0288 26.5279V12.7119C53.0288 12.1599 53.4758 11.7119 54.0288 11.7119H80.4788C81.0318 11.7119 81.4788 12.1599 81.4788 12.7119V26.5279C81.4788 27.0809 81.0318 27.5279 80.4788 27.5279ZM55.0288 25.5279H79.4788V13.7119H55.0288V25.5279Z" fill="white"/>
    <path d="M27.811 27.5279C27.259 27.5279 26.811 27.0799 26.811 26.5279V6.19092C26.811 5.63892 27.259 5.19092 27.811 5.19092H62.516C63.069 5.19092 63.516 5.63892 63.516 6.19092V12.7119C63.516 13.2639 63.069 13.7119 62.516 13.7119C61.963 13.7119 61.516 13.2639 61.516 12.7119V7.19092H28.811V26.5279C28.811 27.0809 28.363 27.5279 27.811 27.5279Z" fill="white"/>
    <path d="M76.4788 16.7119H58.0288V22.5279H76.4788V16.7119Z" fill="#F8DA7F"/>
</svg>