<svg xmlns="http://www.w3.org/2000/svg" width="200" height="201" viewBox="0 0 200 201" fill="none">
    <path d="M135.485 8.65278C135.485 8.65278 108.09 49.2514 64.2587 25.035C20.4271 0.81866 -23.4047 66.3453 14.3393 106.231C52.0833 146.117 15.148 168.034 40.7897 192.479C69.9333 220.262 95.3061 163.923 118.439 176.744C169.496 205.039 207.32 193.837 198.797 161.074C183.837 103.562 164.707 99.8214 179.317 69.9065C193.927 39.9916 161.682 -22.2072 135.485 8.65278Z" fill="#FFE8DE"/>
    <path d="M99.5563 95.4319V180.607L43.0322 152.043L43.3019 67.1759L99.5563 95.4319Z" fill="#F97241"/>
    <path d="M99.5571 95.4829V180.658L155.806 153.081V67.4477L99.5571 95.4829Z" fill="#FFBBA2"/>
    <path d="M99.5563 95.4319L156.08 67.7328L100 38.6488L43.0322 67.0404L99.5563 95.4319Z" fill="#E5520E"/>
    <path d="M27.5961 82.2346L84.4802 114.539C84.6331 114.625 84.8061 114.651 84.9726 114.612C85.1392 114.572 85.2901 114.47 85.4021 114.32L99.556 95.4316L43.0319 67.0402L27.4695 80.6921C27.3631 80.7854 27.279 80.9092 27.2253 81.0515C27.1716 81.1939 27.15 81.35 27.1627 81.5049C27.1754 81.6598 27.222 81.8082 27.2979 81.936C27.3738 82.0638 27.4765 82.1666 27.5961 82.2346Z" fill="#FF9469"/>
    <path d="M156.08 67.7327L171.778 84.3377C171.874 84.439 171.947 84.5667 171.99 84.7091C172.033 84.8516 172.044 85.0044 172.024 85.1536C172.004 85.3027 171.952 85.4437 171.874 85.5635C171.795 85.6834 171.692 85.7784 171.574 85.8399L115.391 115.176C115.241 115.254 115.074 115.275 114.913 115.235C114.753 115.195 114.607 115.096 114.498 114.953L99.5557 95.4318L156.08 67.7327Z" fill="#FF9469"/>
    <path d="M100 38.6489L156.238 67.7329L164.326 65.5397C164.485 65.4966 164.628 65.3958 164.735 65.2519C164.843 65.1079 164.908 64.928 164.923 64.7378C164.938 64.5475 164.901 64.3567 164.818 64.1925C164.734 64.0282 164.609 63.8989 164.459 63.823L113.107 37.7904C112.995 37.7334 112.873 37.7084 112.751 37.7174L100 38.6489Z" fill="#FF9469"/>
    <path d="M99.9995 38.6485L44.0772 67.1756L37.0079 65.7858C36.8443 65.75 36.6947 65.6536 36.5815 65.5108C36.4683 65.368 36.3973 65.1864 36.3791 64.9927C36.361 64.7991 36.3965 64.6038 36.4806 64.4356C36.5646 64.2674 36.6927 64.1354 36.8458 64.0589L89.4666 37.5268C89.5829 37.469 89.7096 37.4452 89.8355 37.4576L99.9995 38.6485Z" fill="#FF9469"/>
    <path d="M158.285 167.378C165.996 167.378 172.246 160.064 172.246 151.043C172.246 142.021 165.996 134.708 158.285 134.708C150.574 134.708 144.323 142.021 144.323 151.043C144.323 160.064 150.574 167.378 158.285 167.378Z" fill="#F97241" stroke="white" stroke-width="15" stroke-miterlimit="10"/>
    <path d="M162.723 146.202C162.492 145.264 162.169 144.501 161.754 143.921C161.352 143.354 160.832 142.919 160.243 142.659C158.972 142.146 157.592 142.146 156.321 142.659C155.733 142.917 155.214 143.353 154.816 143.921C154.395 144.501 154.072 145.264 153.847 146.202C153.622 147.14 153.507 148.286 153.507 149.636V152.389C153.507 153.738 153.622 154.885 153.853 155.83C154.034 156.669 154.366 157.454 154.828 158.131C155.228 158.704 155.749 159.145 156.338 159.413C157.602 159.944 158.985 159.944 160.249 159.413C160.835 159.145 161.352 158.703 161.749 158.131C162.203 157.45 162.531 156.667 162.712 155.83C162.937 154.885 163.052 153.738 163.052 152.389H163.064V149.636C163.063 148.286 162.948 147.139 162.723 146.202ZM160.618 152.8C160.626 153.535 160.575 154.269 160.468 154.993C160.395 155.508 160.245 156.004 160.024 156.457C159.854 156.807 159.602 157.093 159.297 157.28C158.984 157.456 158.641 157.544 158.294 157.537C157.947 157.543 157.603 157.455 157.29 157.28C156.982 157.092 156.724 156.807 156.546 156.457C156.321 156.004 156.165 155.509 156.085 154.993C155.967 154.27 155.913 153.535 155.923 152.8V149.197C155.913 148.464 155.966 147.732 156.079 147.011C156.155 146.505 156.31 146.021 156.535 145.58C156.714 145.244 156.97 144.973 157.274 144.798C157.588 144.637 157.928 144.555 158.271 144.555C158.615 144.555 158.954 144.637 159.269 144.798C159.575 144.969 159.832 145.241 160.007 145.58C160.233 146.021 160.387 146.505 160.463 147.011C160.577 147.732 160.629 148.464 160.619 149.197V152.8H160.618Z" fill="white"/>
</svg>