<!DOCTYPE svg PUBLIC "-//W3C//DTD SVG 1.1//EN" "http://www.w3.org/Graphics/SVG/1.1/DTD/svg11.dtd">
<!-- Uploaded to: SVG Repo, www.svgrepo.com, Transformed by: SVG Repo Mixer Tools -->
<svg fill="#ffffff" height="800px" width="800px" version="1.1" id="Layer_1" xmlns="http://www.w3.org/2000/svg" xmlns:xlink="http://www.w3.org/1999/xlink" viewBox="0 0 512.001 512.001" xml:space="preserve" stroke="#ffffff">
<g id="SVGRepo_bgCarrier" stroke-width="0"/>
<g id="SVGRepo_tracerCarrier" stroke-linecap="round" stroke-linejoin="round"/>
<g id="SVGRepo_iconCarrier"> <g> <g> <path d="M509.548,162.645c-9.632-9.561-18.792-20.957-19.714-24.509c-0.271-2.913-1.19-9.314-20.455-15.047 c-6.258-8.153-13.755-11.662-14.208-11.868c-3.079-1.404-6.701-0.796-9.153,1.534c-3.716,3.53-7.116,7.986-9.866,12.712 c-6.183,1.142-15.388,4.243-24.776,9.185c-46.146,24.287-156.702,42.275-191.793,46.661c-15.863,1.983-35.116,11.921-51.5,26.585 c-6.521,5.837-11.993,11.89-16.257,17.843c-10.086,0.547-41.217,3.09-72.789,14.381C27.332,258.615,0,291.6,0,335.512 c0,21.225,8.846,39.891,24.906,52.56c10.904,8.6,24.295,13.455,36.172,13.455c3.079,0,6.058-0.326,8.863-0.997 c6.028-1.444,11.128-6.014,13.64-12.223c1.95-4.817,3.93-14.925-4.705-28.495c-3.075-4.835-7.046-8.46-10.237-11.372 c-1.821-1.663-4.543-4.148-5.019-5.276c0.211-0.885,2.19-5.699,20.578-17.876c12.528-8.295,23.737-15.086,33.626-21.076 c14.046-8.508,24.859-15.063,32.02-21.526c4.827,7.851,10.876,13.104,15.632,16.357c-2.048,4.867-1.633,10.362,1.173,14.9 c2.998,4.851,8.192,7.746,13.895,7.746h66.609c2.744,0,5.31-1.357,6.854-3.625c1.546-2.268,1.868-5.152,0.864-7.705l-5.437-13.817 c20.074-2.041,67.325-15.472,96.145-24.621c0.707,10.175,2.102,17.056,4.296,21.445l11.869,23.739 c1.405,2.81,4.276,4.585,7.418,4.585h28.384c2.73,0,5.286-1.344,6.834-3.594c1.547-2.25,1.888-5.117,0.911-7.667l-4.177-10.905 c-1.872-4.89-5.309-8.966-9.711-11.638c1.057-6.999,3.619-19.632,9.567-33.715c11.833-28.017,30.846-48.355,56.509-60.444 c0.153-0.072,0.294-0.156,0.44-0.234c3.421,0.667,6.917,1.026,10.401,1.026h13.897c17.552,0,29.783-12.517,29.783-23.751v-2.236 C512,166.322,511.118,164.203,509.548,162.645z M109.231,290.024c-10.023,6.071-21.385,12.953-34.19,21.432 c-19.427,12.864-27.272,21.422-27.98,30.522c-0.668,8.611,5.465,14.211,10.394,18.71c2.72,2.484,5.535,5.053,7.428,8.027 c3.392,5.33,4.602,10.203,3.322,13.367c-0.663,1.639-1.76,2.225-2.128,2.312c-7.276,1.743-19.648-0.474-30.897-9.349 c-6.945-5.474-18.592-17.892-18.592-39.534c0-36.691,22.779-63.49,67.703-79.651c22.358-8.043,44.992-11.383,58.585-12.754 c-0.859,2.925-1.329,5.734-1.329,8.361c0,5.08,0.521,9.709,1.428,13.921C140.338,271.179,125.209,280.346,109.231,290.024z M418.809,199.991c2.097-4.221,4.196-7.728,6.109-10.558c2.519-3.73,4.926-6.634,6.947-8.802c1.822,1.745,3.893,3.362,6.134,4.84 C431.134,189.694,424.727,194.549,418.809,199.991z M482.217,177.931H468.32c-11.608,0-24.416-6.004-27.969-13.11 c-1.059-2.119-2.974-3.682-5.26-4.298c-2.285-0.616-4.727-0.226-6.708,1.074c-1.211,0.795-29.749,20.104-37.937,75.952 c-0.001,0.007-0.001,0.013-0.002,0.02c-1.783,3.473-3.458,7.043-4.997,10.728c-9.94,23.803-11.242,43.493-11.293,44.321 c-0.237,3.878,2.25,7.401,5.985,8.476l1.685,0.484c1.628,0.662,2.934,1.925,3.653,3.524h-11.188l-9.578-19.154 c-0.933-1.867-3.105-8.833-3.105-33.125V242.74l6.418-6.417c3.239-3.239,3.239-8.491,0-11.728c-3.24-3.239-8.491-3.239-11.73,0 l-8.847,8.847c-1.555,1.555-2.428,3.665-2.428,5.864c0,0,0.005,14.755,0.009,15.374c-22.505,7.301-54.321,16.44-76.667,21.571 c2.426-4.396,4.024-9.371,4.716-14.907c3.844-30.748-19.111-48.114-31.786-53c-4.262-1.641-9.021,0.473-10.686,4.723 c-1.664,4.249,0.438,9.052,4.678,10.739c1.002,0.398,24.512,10.059,21.334,35.482c-2.468,19.755-21.993,23.017-43.403,23.33 c0,0-9.22,0-10.294,0c-4.581,0-8.294,3.713-8.294,8.294c0,4.58,3.712,8.294,8.294,8.294c1.037,0,26.369,0,26.369,0 c2.047,0,3.853,1.23,4.601,3.134l1.087,2.763h-54.025l2.845-5.691c1.039-2.079,1.159-4.499,0.33-6.67 c-0.83-2.171-2.533-3.895-4.694-4.751c-0.213-0.084-21.299-8.752-21.299-36.521c0-15.123,34.929-50.124,63.509-53.697 c1.382-0.172,139.866-18.129,197.461-48.441c3.737-1.966,7.254-3.489,10.343-4.653c-0.142,4.341,3.109,8.102,7.493,8.52 c0.266,0.025,0.532,0.038,0.796,0.038c4.225,0,7.838-3.216,8.246-7.508c0.383-4.012,3.148-10.483,7.141-15.962 c2.655,2.431,5.707,6.229,7.201,11.66c1.214,4.417,5.776,7.012,10.197,5.798c1.662-0.457,3.065-1.389,4.106-2.61 c3.484,8.552,13.122,19.47,20.466,27.006C493.913,173.834,489.583,177.931,482.217,177.931z"/> </g> </g> </g>
</svg>